<svg xmlns="http://www.w3.org/2000/svg" width="265.6" height="246.5" viewBox="103.9 49 265.6 246.5"><linearGradient id="A" gradientUnits="userSpaceOnUse" x1="1877.825" y1="-1838.944" x2="3516.221" y2="-1838.944" gradientTransform="matrix(0 0.0954 -0.117 0 21.5178 -82.9688)"><stop offset="0" stop-color="#479dfc"/><stop offset="1" stop-color="#1c77db"/></linearGradient><path fill="url(#A)" d="M128.375 152.675h-.15c-5.033-6.5-10.017-13.75-14.95-21.75 5.6-9.333 12.95-18.95 22.05-28.85 7.433 3.767 14.8 8.017 22.1 12.75 1.466-1.5 3.3-3.083 5.5-4.75l5.75-4.35 5.2-3.7c-1.301-10.466-2.133-21.783-2.5-33.95 12.6-6.3 27.267-11.284 44-14.95 5.066 8.567 10.1 18.333 15.1 29.3l6.1-.3h.4l5.95.3c5.1-10.966 10.2-20.733 15.299-29.3 16.732 3.667 31.334 8.65 43.801 14.95-.268 12.167-1.051 23.483-2.35 33.95l5.148 3.7 5.801 4.35c2.133 1.667 3.916 3.25 5.35 4.75 7.301-4.733 14.65-8.983 22.051-12.75 9.232 9.9 16.584 19.517 22.049 28.85-4.799 8-9.732 15.25-14.799 21.75h-.201v23.8c-5.666.933-10.582 4.417-14.75 10.45-4.564 6.533-6.85 14.5-6.85 23.9l.1 2.6-19.049 4.35h-.15c-1.398.367-2.732 1.184-4 2.449h-.301c-.898 1.268-1.5 2.783-1.799 4.551l-1 15.4-30.75 4.699-1.9-13.75c-.199-1.6-.967-2.916-2.301-3.949h-.148c-1.168-1.066-2.602-1.518-4.301-1.35a453.56 453.56 0 0 1-21.25.5c-7.037-.002-14.072-.168-21.102-.5-1.561-.191-3.128.301-4.3 1.35-.133-.1-.2-.1-.2 0a6.06 6.06 0 0 0-2.25 3.949l-1.949 13.75-30.701-4.699c-.227-5.141-.576-10.275-1.049-15.4-.233-1.768-.801-3.283-1.701-4.551h-.35c-1.199-1.266-2.533-2.082-4-2.449l-19.05-4.35v-2.6c0-9.4-2.283-17.367-6.85-23.9h-.05c-4.133-6.033-9.033-9.517-14.7-10.45l.002-23.8m141.65 24.401c0 3 .566 5.9 1.699 8.7 1.1 2.566 2.666 4.883 4.701 6.949a24.55 24.55 0 0 0 7.148 4.75c2.699 1.027 5.563 1.553 8.449 1.551 3 0 5.818-.518 8.451-1.551 2.732-1.166 5.1-2.75 7.1-4.75 2.033-2.066 3.602-4.383 4.699-6.949 1.268-2.8 1.9-5.7 1.9-8.7s-.635-5.833-1.9-8.5c-.799-1.833-1.75-3.517-2.85-5.05l-1.852-1.95-.648-.85c-1.865-1.567-4.018-2.883-6.449-3.95-2.633-1.233-5.451-1.85-8.451-1.85-2.898 0-5.715.617-8.449 1.85-2.467 1.067-4.617 2.383-6.449 3.95l-.699.85-1.551 1.95c-1.4 1.534-2.449 3.217-3.15 5.05-1.132 2.667-1.699 5.5-1.699 8.5m-33.4 4.549c-2.467 0-4.566 1.017-6.301 3.05-1.801 2-2.699 4.417-2.699 7.25v12.1c0 2.832.898 5.217 2.699 7.15 1.733 2 3.834 3 6.301 3 2.533 0 4.684-1 6.449-3 1.733-1.934 2.601-4.316 2.601-7.15v-12.1c0-2.834-.867-5.25-2.601-7.25-1.765-2.032-3.915-3.05-6.449-3.05m-33.15-4.549c0-3-.533-5.833-1.6-8.5-.867-1.833-1.9-3.517-3.101-5.05l-1.6-1.95-.851-.85c-1.8-1.567-3.883-2.883-6.25-3.95-2.699-1.233-5.582-1.85-8.649-1.85-3 0-5.8.617-8.4 1.85-2.366 1.067-4.532 2.383-6.5 3.95l-.75.85-1.6 1.95c-1.2 1.534-2.184 3.217-2.95 5.05-1.233 2.667-1.85 5.5-1.85 8.5s.617 5.9 1.85 8.7c1.033 2.566 2.55 4.883 4.55 6.949 2.034 2 4.45 3.584 7.25 4.75 2.601 1.033 5.4 1.551 8.4 1.551 3.065 0 5.95-.518 8.649-1.551a25.71 25.71 0 0 0 7.101-4.75c1.925-2.053 3.511-4.398 4.7-6.949a24.21 24.21 0 0 0 1.601-8.7"/><path fill="#1c77db" d="M358.275 212.625c0-3.232-.533-5.967-1.6-8.199-1-2.234-2.268-3.35-3.801-3.35s-2.834 1.115-3.9 3.35-1.6 4.967-1.6 8.199c0 3.168.533 5.9 1.6 8.201s2.367 3.449 3.9 3.449 2.801-1.15 3.801-3.449c1.067-2.301 1.6-5.033 1.6-8.201m-221.4 46.9c-3.133-4.066-5.417-8.385-6.85-12.949l-2.5-8.951-2.8.5c-4.133-.133-7.733-2.416-10.8-6.85h-.1c-3.467-5.232-5.2-11.449-5.2-18.65 0-7.299 1.767-13.566 5.3-18.799h-.1c3.133-4.4 6.767-6.701 10.9-6.9 1.3.1 2.517.35 3.65.75 2.733.967 5.167 3.016 7.3 6.15 3.466 5.232 5.2 11.5 5.2 18.799v.4c0 3.801-.483 7.332-1.45 10.6v.15l8.8 1.801 13.7 3.148 1.25 15.65c-.101 1.732.55 3.301 1.95 4.701 1.166 1.266 2.6 2.064 4.3 2.398 14.2 2.602 28.399 4.834 42.6 6.701 1.833.033 3.435-.434 4.8-1.4 1.4-1.1 2.217-2.449 2.45-4.049l2.15-14.201 15.2.051 15.449-.051 2.199 14.201c.234 1.6 1 2.949 2.301 4.049 1.367.969 2.967 1.436 4.801 1.4 14.266-1.867 28.516-4.1 42.75-6.701 1.699-.332 3.082-1.133 4.148-2.398h.15c1.301-1.4 1.916-2.969 1.85-4.701l1.352-15.65 13.699-3.148 8.699-2.15c-.898-3.133-1.398-6.6-1.5-10.4v-.4c0-7.299 1.768-13.566 5.301-18.799h-.1c2.135-3.135 4.584-5.185 7.35-6.15l3.553-.75c4.266.199 7.916 2.5 10.947 6.9 3.469 5.232 5.201 11.5 5.201 18.799 0 7.201-1.732 13.418-5.201 18.65-3.031 4.434-6.682 6.717-10.947 6.85l-2.451-.35-2.699 8.801c-1.467 4.564-3.768 8.883-6.9 12.949-5.367 6.967-13.084 12.865-23.148 17.699-9.568 4.602-21.018 8.084-34.352 10.449-12.898 2.467-26.934 3.701-42.1 3.701h-.399c-15.267 0-29.351-1.234-42.25-3.701-13.233-2.365-24.668-5.85-34.301-10.449-10.102-4.832-17.819-10.733-23.152-17.7m-9.7-46.9c0-3.232-.534-5.967-1.6-8.199-1-2.234-2.283-3.35-3.85-3.35-1.533 0-2.8 1.115-3.8 3.35-1.034 2.232-1.55 4.967-1.55 8.199 0 3.168.517 5.9 1.55 8.201 1 2.299 2.267 3.449 3.8 3.449 1.567 0 2.85-1.15 3.85-3.449 1.067-2.301 1.6-5.033 1.6-8.201"/></svg>